<svg xmlns="http://www.w3.org/2000/svg" viewBox="0 0 512 512" width="100%" height="100%">
  <rect width="512" height="512" rx="120" fill="#111114" />
  <rect x="10" y="10" width="492" height="492" rx="110" fill="none" stroke="#23232C" stroke-width="16" />

  <radialGradient id="battle-glow" cx="50%" cy="50%" r="42%">
    <stop offset="0%" stop-color="#EF4444" stop-opacity="0.22" />
    <stop offset="60%" stop-color="#F5C542" stop-opacity="0.1" />
    <stop offset="100%" stop-color="#EF4444" stop-opacity="0" />
  </radialGradient>
  <rect width="512" height="512" rx="120" fill="url(#battle-glow)" />

  <!-- Dual Swords Clash Emblem -->
  <g transform="translate(256, 256) scale(15)" stroke="#F5C542" stroke-width="2.3" stroke-linecap="round" stroke-linejoin="round" fill="none">
    <g transform="translate(-12, -12)">
      <!-- Sword 1 -->
      <polyline points="14.5 17.5 3 6 3 3 6 3 17.5 14.5" fill="#EF4444" fill-opacity="0.1" />
      <line x1="13" y1="19" x2="19" y2="13" />
      <line x1="16" y1="16" x2="20" y2="20" />
      <line x1="19" y1="21" x2="21" y2="19" />

      <!-- Sword 2 -->
      <polyline points="14.5 6.5 18 3 21 3 21 6 17.5 9.5" fill="#EF4444" fill-opacity="0.1" />
      <line x1="5" y1="14" x2="9" y2="18" />
      <line x1="7" y1="17" x2="4" y2="20" />
      <line x1="3" y1="19" x2="5" y2="21" />

      <!-- Clash spark in center -->
      <circle cx="12" cy="12" r="1.5" fill="#FFF" stroke="#F5C542" stroke-width="0.8" />
    </g>
  </g>
</svg>