<svg xmlns="http://www.w3.org/2000/svg" viewBox="0 0 512 512" width="100%" height="100%">
  <rect width="512" height="512" rx="120" fill="#111114" />
  <rect x="10" y="10" width="492" height="492" rx="110" fill="none" stroke="#23232C" stroke-width="16" />

  <radialGradient id="mod-glow" cx="50%" cy="45%" r="40%">
    <stop offset="0%" stop-color="#38BDF8" stop-opacity="0.22" />
    <stop offset="100%" stop-color="#38BDF8" stop-opacity="0" />
  </radialGradient>
  <rect width="512" height="512" rx="120" fill="url(#mod-glow)" />

  <!-- Open Book Codex Emblem -->
  <g transform="translate(256, 256) scale(15)" stroke="#38BDF8" stroke-width="2.2" stroke-linecap="round" stroke-linejoin="round" fill="none">
    <g transform="translate(-12, -12)">
      <!-- Book Pages Outer -->
      <path d="M3 19a9 9 0 0 1 9 0 9 9 0 0 1 9 0V6a9 9 0 0 0-9 0 9 9 0 0 0-9 0v13z" fill="#38BDF8" fill-opacity="0.12" />
      <!-- Book Spine -->
      <line x1="12" y1="6" x2="12" y2="19" stroke-width="2.5" />
      <!-- Bookmark ribbon -->
      <path d="M12 6v7l2-1.5 2 1.5V6" fill="#38BDF8" fill-opacity="0.4" stroke-width="1.2" />
      <!-- Code lines / magic runes -->
      <line x1="6" y1="9.5" x2="9.5" y2="9.5" stroke-width="1.8" />
      <line x1="6" y1="13" x2="9" y2="13" stroke-width="1.8" />
      <line x1="14.5" y1="13" x2="18" y2="13" stroke-width="1.8" />
    </g>
  </g>
</svg>